# xmcd CD database file generated by OrangeCD 5.1
#
# Track frame offsets:
#	150
#	25074
#	41307
#	71571
#	104306
#	121379
#	138308
#	164521
#	184417
#	204686
#	220462
#	240163
#	259270
#	272667
#	286600
#	303700
#
# Disc length: 4382 seconds
#
# Revision: 4
# Processed by: cddbd v1.5PL3 Copyright (c) Steve Scherf et al.
# Submitted via: OrangeCD 5.1
#
DISCID=ec111c10
DTITLE=Alexis Korner - Musically Rich and Famous [CD2]
DYEAR=2000
DGENRE=British Blues
TTITLE0=Get Off My Cloud
TTITLE1=Strange 'N' Deranged
TTITLE2=Spoonful
TTITLE3=You Got The Power (To Turn Me On)
TTITLE4=Daytime Song
TTITLE5=Honky Tonk Woman
TTITLE6=Mess Of Blues
TTITLE7=Hey Pretty Mama
TTITLE8=Precious Lord
TTITLE9=How Long Blues
TTITLE10=I Got My Mojo Working
TTITLE11=Geneva
TTITLE12=Blood On The Saddle
TTITLE13=Wreck Of The Old 97
TTITLE14=Big Boss Man
TTITLE15=High Heeled Sneakers
EXTD=
EXTT0=
EXTT1=
EXTT2=
EXTT3=
EXTT4=
EXTT5=
EXTT6=
EXTT7=
EXTT8=
EXTT9=
EXTT10=
EXTT11=
EXTT12=
EXTT13=
EXTT14=
EXTT15=
PLAYORDER=
